<svg id="Layer_1" data-name="Layer 1" xmlns="http://www.w3.org/2000/svg" width="64" height="64" viewBox="0 0 64 64"><defs><style>.cls-1{fill:#666;}</style></defs><title>telephone-01 4aa</title><path class="cls-1" d="M6,42.54H17.28A3.54,3.54,0,0,0,20.77,39V33a1.82,1.82,0,0,1,.65-1.15c1.53-1.53,5.5-3.17,10.64-3.13a20.64,20.64,0,0,1,8.24,1.63c2.1,1,3,2.05,3,2.7V39.1a3.48,3.48,0,0,0,3.48,3.49H58.1a3.54,3.54,0,0,0,3.49-3.49V32.58c0-7.51-13-13.48-29.56-13.48-11.56,0-22.13,3-26.88,7.77a8,8,0,0,0-2.67,5.69v6.52A3.52,3.52,0,0,0,6,42.54Z"/></svg>