<svg id="Layer_1" data-name="Layer 1" xmlns="http://www.w3.org/2000/svg" width="64" height="64" viewBox="0 0 64 64"><defs><style>.cls-1{fill:#666;}</style></defs><title>signposts</title><path id="signposts" class="cls-1" d="M57.71,15.29l-5-5A1,1,0,0,0,52,10H36V5a1,1,0,0,0-1-1H31a1,1,0,0,0-1,1v5H13a1,1,0,0,0-1,1V21a1,1,0,0,0,1,1H30v6H12a1,1,0,0,0-.71.29l-5,5a1,1,0,0,0,0,1.41l5,5A1,1,0,0,0,12,40H30V59a1,1,0,0,0,1,1h4a1,1,0,0,0,1-1V40H51a1,1,0,0,0,1-1V29a1,1,0,0,0-1-1H36V22H52a1,1,0,0,0,.71-0.29l5-5A1,1,0,0,0,57.71,15.29ZM32,6h2v4H32V6Zm2,52H32V40h2V58ZM50,38H12.41l-4-4,4-4H50v8ZM34,28H32V22h2v6Zm17.59-8H14V12H51.59l4,4Z"/></svg>