<svg id="Layer_1" data-name="Layer 1" xmlns="http://www.w3.org/2000/svg" width="64" height="64" viewBox="0 0 64 64"><defs><style>.cls-1{fill:#666;}</style></defs><title>alarm_off</title><path class="cls-1" d="M33,6H31a1,1,0,0,0-1,1v3.15c-8.31,1.14-14.12,9.43-15,21.77l-0.69,9A1,1,0,0,0,15.23,42h0.08a1,1,0,0,0,1-.92l0.69-9C17.87,19.88,23.76,12,32,12a12.32,12.32,0,0,1,8.79,3.71,1,1,0,0,0,1.4-1.42A14.39,14.39,0,0,0,34,10.15V7A1,1,0,0,0,33,6Z"/><path class="cls-1" d="M36.2,54.29a6,6,0,0,1-8.4,0,1,1,0,1,0-1.4,1.42,8,8,0,0,0,11.2,0A1,1,0,0,0,36.2,54.29Z"/><path class="cls-1" d="M6.29,55.71a1,1,0,0,0,1.42,0l44-44A1,1,0,0,0,50.3,10.3l-44,44A1,1,0,0,0,6.29,55.71Z"/><path class="cls-1" d="M56,51a1,1,0,0,0-1-1,5,5,0,0,1-5-5.08l-1-13a35.36,35.36,0,0,0-2.16-10.29,1,1,0,0,0-1.86.72,33.43,33.43,0,0,1,2,9.71L48,45a7,7,0,0,0,2.11,5H16.88a1,1,0,1,0,0,2H55A1,1,0,0,0,56,51Z"/></svg>