<svg id="Layer_1" data-name="Layer 1" xmlns="http://www.w3.org/2000/svg" width="64" height="64" viewBox="0 0 64 64"><defs><style>.cls-1{fill:#666;}</style></defs><title>mobile_monitor</title><path class="cls-1" d="M31,42a1,1,0,0,0-1,1v6a1,1,0,0,0,1,1H47a1,1,0,0,0,0-2H44V43a1,1,0,0,0-2,0v5H32V43A1,1,0,0,0,31,42Z"/><path class="cls-1" d="M31,34a1,1,0,0,0,0,2H55a1,1,0,0,0,1-1V11a1,1,0,0,0-1-1H19a1,1,0,0,0-1,1v2a1,1,0,0,0,2,0V12H54V34H31Z"/><path class="cls-1" d="M56,6H18a4,4,0,0,0-4,4v3a1,1,0,0,0,2,0V10a2,2,0,0,1,2-2H56a2,2,0,0,1,2,2V36a2,2,0,0,1-2,2H31a1,1,0,0,0,0,2H56a4,4,0,0,0,4-4V10A4,4,0,0,0,56,6Z"/><path class="cls-1" d="M13,22h6a1,1,0,0,0,0-2H13A1,1,0,0,0,13,22Z"/><path class="cls-1" d="M17,52H15a1,1,0,0,0,0,2h2A1,1,0,0,0,17,52Z"/><path class="cls-1" d="M16,58c8.3,0,12-1.85,12-6V22c0-4.15-3.7-6-12-6S4,17.85,4,22V52C4,56.15,7.7,58,16,58ZM26,48H6V26H26V48ZM16,56C6,56,6,53.2,6,52V50H26v2C26,53.2,26,56,16,56Zm0-38c10,0,10,2.8,10,4v2H6V22C6,20.8,6,18,16,18Z"/></svg>